<svg fill="none" height="512" viewBox="0 0 36 36" width="512" xmlns="http://www.w3.org/2000/svg"><path d="m21.9048 29.6234c-3.8242 3.4533-9.7805 1.1643-12.57492-.6986-5.58887-4.1917-9.068312-17.6273-3.53705-21.27832 4.89027-3.22792 7.68467 1.39722 18.76387-3.22792 8.3226-3.474403 10.5777 15.80284 6.386 16.50144-4.1916.6986-5.5889 5.5889-9.0379 8.7034z" fill="#efefef"/><path clip-rule="evenodd" d="m30.0076 29.1961 1.4142 1.4142-.7071.7071-1.4143-1.4142z" fill="#90a4ad" fill-rule="evenodd"/><path clip-rule="evenodd" d="m27.8862 29.9032-1.4142 1.4143-.7071-.7071 1.4142-1.4143z" fill="#90a4ad" fill-rule="evenodd"/><path clip-rule="evenodd" d="m31.4218 26.3677-1.4142 1.4142-.7071-.7071 1.4142-1.4142z" fill="#90a4ad" fill-rule="evenodd"/><path d="m7.72811 17.6464c-.38426 0-.68187-.3421-.57734-.7118.12263-.4338.29728-.8457.51678-1.2287.17635-.3076.59347-.3366.84421-.0859.30603.306.80221.306 1.10825 0 .30603-.306.30603-.8022 0-1.1083-.25074-.2507-.22169-.6678.08595-.8442.38294-.2195.79484-.3941 1.22864-.5167.3697-.1046.7118.193.7118.5773 0 .4328.3508.7837.7836.7837s.7837-.3509.7837-.7837c0-.3843.342-.6819.7118-.5773.4337.1226.8456.2972 1.2286.5167.3076.1764.3367.5935.0859.8442-.306.3061-.306.8023 0 1.1083.3061.306.8022.306 1.1083 0 .2507-.2507.6678-.2217.8442.0859.2195.383.3941.7949.5167 1.2287.1046.3697-.193.7118-.5773.7118-.4328 0-.7836.3508-.7836.7836s.3508.7837.7836.7837c.3843 0 .6819.342.5773.7118-.1226.4337-.2972.8457-.5167 1.2286-.1764.3076-.5935.3367-.8442.0859-.3061-.306-.8023-.306-1.1083 0-.306.3061-.306.8023 0 1.1083.2507.2507.2217.6678-.0859.8442-.383.2195-.7949.3941-1.2286.5167-.3698.1046-.7118-.193-.7118-.5773 0-.4328-.3509-.7836-.7837-.7836s-.7836.3508-.7836.7836c0 .3843-.342.6819-.7118.5774-.4013-.1135-.7839-.2715-1.14214-.4683-.26316-.1446-.28914-.5005-.07049-.7063.33633-.3165.34443-.8484.01783-1.1749-.31969-.3197-.838-.3197-1.15769 0-.24635.2463-.65506.2231-.83669-.0742-.25632-.4196-.45785-.8763-.59465-1.3602-.10454-.3697.19308-.7117.57734-.7117.4328 0 .78365-.3509.78365-.7837s-.35085-.7836-.78365-.7836z" fill="#2edf84"/><g clip-rule="evenodd" fill-rule="evenodd"><path d="m7.15077 16.9346c-.10453.3697.19308.7118.57734.7118.4328 0 .78365.3508.78365.7836s-.35085.7837-.78365.7837c-.38426 0-.68188.342-.57734.7117.1368.4839.33833.9406.59465 1.3602.18163.2973.59034.3205.83669.0742.15661-.1567.36089-.2365.56613-.2397-.21046-.3733-.37846-.7737-.49747-1.1947-.10454-.3697.19308-.7117.57734-.7117.4328 0 .78369-.3509.78369-.7837s-.35089-.7836-.78369-.7836c-.38426 0-.68187-.3421-.57734-.7118.10748-.3802.25492-.7436.43749-1.0854-.20795.0059-.41779-.0705-.5765-.2292-.25074-.2507-.66786-.2217-.84421.0859-.2195.383-.39415.7949-.51678 1.2287zm2.58874-1.468c.09874.0237.19366.0748.27229.1534.306.306.8022.306 1.1082 0s.306-.8022 0-1.1083c-.2507-.2507-.2217-.6678.086-.8442.125-.0716.253-.1385.384-.2003-.112-.2445-.3758-.3955-.6554-.3164-.4338.1226-.8457.2972-1.22864.5167-.30764.1764-.33669.5935-.08595.8442.25896.259.29879.6541.1195.9549zm3.44049-1.5106c.0976.3216.3965.5558.75.5558.4328 0 .7837-.3509.7837-.7837 0-.0936.0203-.1821.0564-.2609-.2702-.1276-.5525-.2338-.8446-.3164-.3698-.1046-.7118.193-.7118.5773 0 .0793-.0118.1558-.0337.2279zm3.4405 1.5106c.0326.0547.0724.1063.1195.1534.1473.1473.3387.2237.5318.2292-.0258-.0482-.0522-.0959-.0793-.1433-.1211-.2112-.3557-.2911-.572-.2393zm.6513 5.5442c-.1931.0055-.3845.0819-.5318.2292-.0471.0471-.0869.0987-.1195.1534.2163.0518.4509-.0281.572-.2393.0271-.0473.0535-.0951.0793-.1433zm-2.5017 2.382c-.0361-.0788-.0564-.1672-.0564-.2609 0-.4328-.3509-.7836-.7837-.7836-.3535 0-.6524.2341-.75.5557.0219.0721.0337.1486.0337.2279 0 .3843.342.6819.7118.5773.2921-.0826.5744-.1888.8446-.3164zm-3.1801 0c-.1009-.0476-.2001-.0983-.2975-.1518-.2632-.1446-.2892-.5005-.0705-.7063.3363-.3165.3444-.8484.0178-1.1749-.3197-.3197-.838-.3197-1.1577 0-.067.067-.14599.114-.22918.1411.20538.3239.16038.7597-.13095 1.0338-.21865.2058-.19266.5617.07049.7063.35824.1968.74084.3548 1.14214.4683.2796.079.5434-.072.6554-.3165z" fill="#00b872"/><path d="m10.9113 13.943c-.2024.0685-.3987.1503-.5879.2445.4189.5982.3612 1.4286-.1731 1.9628-.53422.5343-1.3646.592-1.9628.1731-.09416.1892-.17599.3855-.24447.5879.74526.1045 1.31874.7446 1.31874 1.5187s-.57348 1.4142-1.31874 1.5187c.08353.2469.18692.4848.30832.7117.61264-.4371 1.469-.3808 2.01875.169.5241.5241.5984 1.3242.2302 1.9266.1338.0599.271.1136.411.161.1045-.7453.7446-1.3187 1.5187-1.3187s1.4142.5734 1.5187 1.3187c.2024-.0685.3987-.1503.5879-.2445-.4189-.5982-.3612-1.4285.1731-1.9628.5343-.5342 1.3646-.5919 1.9628-.173.0942-.1892.176-.3856.2445-.588-.7453-.1045-1.3187-.7446-1.3187-1.5187s.5734-1.4142 1.3187-1.5187c-.0685-.2024-.1503-.3987-.2445-.5879-.5982.4189-1.4285.3612-1.9628-.1731l.5303-.5303-.5303.5303c-.5343-.5342-.592-1.3646-.1731-1.9628-.1891-.0942-.3855-.176-.5879-.2445-.1045.7453-.7446 1.3188-1.5187 1.3188s-1.4142-.5735-1.5187-1.3188zm-.1808-1.5139c.9194-.26 1.6659.4937 1.6659 1.299 0 .0186.015.0337.0336.0337s.0337-.0151.0337-.0337c0-.8053.7464-1.559 1.6658-1.299.4936.1395.9622.3382 1.3975.5878.7947.4555.7944 1.4741.2433 2.0252-.0131.0131-.0131.0344 0 .0476.0132.0131.0345.0131.0476 0 .5511-.5511 1.5697-.5514 2.0253.2433.2495.4353.4482.9039.5878 1.3975.2599.9194-.4937 1.6659-1.2991 1.6659-.0186 0-.0336.015-.0336.0336s.015.0337.0336.0337c.8054 0 1.559.7464 1.2991 1.6658-.1396.4936-.3383.9622-.5879 1.3976-.4555.7946-1.4741.7943-2.0252.2433-.0131-.0132-.0344-.0132-.0476 0-.0131.0131-.0131.0344.0001.0476.551.551.5513 1.5696-.2433 2.0252-.4354.2495-.904.4482-1.3976.5878-.9194.2599-1.6658-.4937-1.6658-1.2991 0-.0186-.0151-.0336-.0337-.0336s-.0336.015-.0336.0336c0 .8053-.7464 1.559-1.6658 1.2991-.4567-.1291-.89193-.3089-1.29927-.5326-.7621-.4187-.76802-1.3973-.22335-1.9098.02819-.0266.02886-.0711.0015-.0985-.0268-.0268-.07024-.0268-.09703 0-.54256.5426-1.53874.5531-2.00705-.2135-.29138-.477-.52066-.9965-.67634-1.5471-.25992-.9194.49373-1.6658 1.29906-1.6658.01858 0 .03365-.0151.03365-.0337s-.01507-.0336-.03365-.0336c-.80536 0-1.55897-.7465-1.29905-1.6659.13954-.4936.33825-.9622.58781-1.3975.45552-.7947 1.47417-.7944 2.02522-.2433.01314.0131.03444.0131.04758 0 .01314-.0132.01314-.0345 0-.0476-.55104-.5511-.55136-1.5697.2433-2.0252.43537-.2496.90392-.4483 1.39752-.5878z" fill="#000"/><path d="m25.5 12.25c-.6904 0-1.25.5596-1.25 1.25 0 .4142-.3358.75-.75.75s-.75-.3358-.75-.75c0-1.5188 1.2312-2.75 2.75-2.75s2.75 1.2312 2.75 2.75-1.2312 2.75-2.75 2.75h-5.5c-.4142 0-.75-.3358-.75-.75s.3358-.75.75-.75h5.5c.6904 0 1.25-.5596 1.25-1.25s-.5596-1.25-1.25-1.25z" fill="#000"/><path d="m28 19.25c-.0697 0-.1316-.0275-.1777-.0742-.2914-.2945-.7662-.297-1.0607-.0057s-.297.7662-.0057 1.0606c.3164.3198.7576.5193 1.2441.5193.9665 0 1.75-.7835 1.75-1.75s-.7835-1.75-1.75-1.75h-6c-.4142 0-.75.3358-.75.75s.3358.75.75.75h6c.1381 0 .25.1119.25.25s-.1119.25-.25.25z" fill="#000"/><path d="m25 23.25c-.3254 0-.6042-.2076-.7075-.4999-.1381-.3906-.5665-.5953-.9571-.4572-.3905.138-.5952.5665-.4572.957.3085.8729 1.141 1.5001 2.1218 1.5001 1.2426 0 2.25-1.0074 2.25-2.25s-1.0074-2.25-2.25-2.25h-5.5c-.4142 0-.75.3358-.75.75s.3358.75.75.75h5.5c.4142 0 .75.3358.75.75s-.3358.75-.75.75z" fill="#000"/></g></svg>